# xmcd CD database file
#
# Track frame offsets:
#	150
#	35477
#	76342
#	97350
#	122342
#	146612
#	171305
#
# Disc length: 2556 seconds
#
# Revision: 0
# Processed by: cddbd v1.5.2PL0 Copyright (c) Steve Scherf et al.
# Submitted via: CDex 1.51
#
DISCID=5b09fa07
DTITLE=大森明 - To Be Young And Foolish
DYEAR=2000
DGENRE=Jazz
TTITLE0=To Be Young And Foolish
TTITLE1=Ruby My Dear
TTITLE2=Bud City
TTITLE3=Triste
TTITLE4=It's You Or No One
TTITLE5=M's Lullaby
TTITLE6=Princess
EXTD=YEAR: 2000
EXTT0=
EXTT1=
EXTT2=
EXTT3=
EXTT4=
EXTT5=
EXTT6=
PLAYORDER=
